<?xml version="1.0" encoding="UTF-8"?>
<!DOCTYPE svg PUBLIC "-//W3C//DTD SVG 1.1//EN" "http://www.w3.org/Graphics/SVG/1.1/DTD/svg11.dtd">
<svg xmlns="http://www.w3.org/2000/svg" xmlns:xlink="http://www.w3.org/1999/xlink" version="1.1" width="566px" height="554px" viewBox="-0.5 -0.5 566 554"><defs><clipPath id="mx-clip-269-171-172-44-0"><rect x="269" y="171" width="172" height="44"/></clipPath><clipPath id="mx-clip-269-223-172-60-0"><rect x="269" y="223" width="172" height="60"/></clipPath><clipPath id="mx-clip-24-189-172-24-0"><rect x="24" y="189" width="172" height="24"/></clipPath><clipPath id="mx-clip-24-221-172-42-0"><rect x="24" y="221" width="172" height="42"/></clipPath><clipPath id="mx-clip-49-65-122-54-0"><rect x="49" y="65" width="122" height="54"/></clipPath><clipPath id="mx-clip-159-351-172-44-0"><rect x="159" y="351" width="172" height="44"/></clipPath><clipPath id="mx-clip-159-395-172-30-0"><rect x="159" y="395" width="172" height="30"/></clipPath><clipPath id="mx-clip-159-433-172-52-0"><rect x="159" y="433" width="172" height="52"/></clipPath><clipPath id="mx-clip-159-485-172-50-0"><rect x="159" y="485" width="172" height="50"/></clipPath><clipPath id="mx-clip-369-351-172-44-0"><rect x="369" y="351" width="172" height="44"/></clipPath><clipPath id="mx-clip-369-403-172-52-0"><rect x="369" y="403" width="172" height="52"/></clipPath></defs><g><path d="M 265 166 L 265 140 L 445 140 L 445 166" fill="rgb(255, 255, 255)" stroke="rgb(0, 0, 0)" stroke-miterlimit="10" pointer-events="all"/><path d="M 265 166 L 265 278 L 445 278 L 445 166" fill="none" stroke="rgb(0, 0, 0)" stroke-miterlimit="10" pointer-events="none"/><path d="M 265 166 L 445 166" fill="none" stroke="rgb(0, 0, 0)" stroke-miterlimit="10" pointer-events="none"/><g fill="rgb(0, 0, 0)" font-family="Helvetica" font-weight="bold" font-style="italic" pointer-events="none" text-anchor="middle" font-size="12px"><text x="354.5" y="157.5">Chat</text></g><g fill="rgb(0, 0, 0)" font-family="Helvetica" font-style="italic" pointer-events="none" clip-path="url(#mx-clip-269-171-172-44-0)" font-size="12px"><text x="270.5" y="183.5"># users[1..*]: User</text><text x="270.5" y="197.5"># history: MessageHistory</text></g><path d="M 265 214 L 445 214" fill="none" stroke="rgb(0, 0, 0)" stroke-miterlimit="10" pointer-events="none"/><g fill="rgb(0, 0, 0)" font-family="Helvetica" font-style="italic" pointer-events="none" clip-path="url(#mx-clip-269-223-172-60-0)" font-size="12px"><text x="270.5" y="235.5">+ Send(Message, User)</text><text x="270.5" y="249.5">+ GetHistory(): MessageHistory</text><text x="270.5" y="263.5">+ GetUsers(): Users[1..*]</text></g><path d="M 200 209 L 215 209 L 247.29 209" fill="none" stroke="rgb(0, 0, 0)" stroke-miterlimit="10" pointer-events="none"/><path d="M 264.29 209 L 255.79 217.5 L 247.29 209 L 255.79 200.5 Z" fill="rgb(0, 0, 0)" stroke="rgb(0, 0, 0)" stroke-miterlimit="10" pointer-events="none"/><path d="M 110 158 L 110 114" fill="none" stroke="rgb(0, 0, 0)" stroke-miterlimit="10" pointer-events="none"/><path d="M 20 184 L 20 158 L 200 158 L 200 184" fill="rgb(255, 255, 255)" stroke="rgb(0, 0, 0)" stroke-miterlimit="10" pointer-events="none"/><path d="M 20 184 L 20 258 L 200 258 L 200 184" fill="none" stroke="rgb(0, 0, 0)" stroke-miterlimit="10" pointer-events="none"/><path d="M 20 184 L 200 184" fill="none" stroke="rgb(0, 0, 0)" stroke-miterlimit="10" pointer-events="none"/><g fill="rgb(0, 0, 0)" font-family="Helvetica" font-weight="bold" pointer-events="none" text-anchor="middle" font-size="12px"><text x="109.5" y="175.5">MessageHistory</text></g><g fill="rgb(0, 0, 0)" font-family="Helvetica" pointer-events="none" clip-path="url(#mx-clip-24-189-172-24-0)" font-size="12px"><text x="25.5" y="201.5">- elements[0..*]: HistoryElement</text></g><path d="M 20 212 L 200 212" fill="none" stroke="rgb(0, 0, 0)" stroke-miterlimit="10" pointer-events="none"/><g fill="rgb(0, 0, 0)" font-family="Helvetica" pointer-events="none" clip-path="url(#mx-clip-24-221-172-42-0)" font-size="12px"><text x="25.5" y="233.5">+ Find(Date): Message</text><text x="25.5" y="247.5">+ Find(string): Message</text></g><path d="M 210 60 L 210 20 L 280 20 L 280 60" fill="rgb(255, 255, 255)" stroke="rgb(0, 0, 0)" stroke-miterlimit="10" pointer-events="none"/><path d="M 210 60 L 210 68 L 280 68 L 280 60" fill="none" stroke="rgb(0, 0, 0)" stroke-miterlimit="10" pointer-events="none"/><path d="M 210 60 L 280 60" fill="none" stroke="rgb(0, 0, 0)" stroke-miterlimit="10" pointer-events="none"/><g fill="rgb(0, 0, 0)" font-family="Helvetica" font-weight="bold" pointer-events="none" text-anchor="middle" font-size="12px"><text x="244.5" y="37.5">«struct»</text><text x="244.5" y="51.5">Date</text></g><path d="M 45 60 L 45 20 L 175 20 L 175 60" fill="rgb(255, 255, 255)" stroke="rgb(0, 0, 0)" stroke-miterlimit="10" pointer-events="none"/><path d="M 45 60 L 45 114 L 175 114 L 175 60" fill="none" stroke="rgb(0, 0, 0)" stroke-miterlimit="10" pointer-events="none"/><path d="M 45 60 L 175 60" fill="none" stroke="rgb(0, 0, 0)" stroke-miterlimit="10" pointer-events="none"/><g fill="rgb(0, 0, 0)" font-family="Helvetica" font-weight="bold" pointer-events="none" text-anchor="middle" font-size="12px"><text x="109.5" y="37.5">«struct»</text><text x="109.5" y="51.5">HistoryElement</text></g><g fill="rgb(0, 0, 0)" font-family="Helvetica" pointer-events="none" clip-path="url(#mx-clip-49-65-122-54-0)" font-size="12px"><text x="50.5" y="77.5">+ Content: Message</text><text x="50.5" y="91.5">+ Sender: User</text><text x="50.5" y="105.5">+ Date: Date</text></g><path d="M 230 320 L 230 310 L 340 310 L 340 296.12" fill="none" stroke="rgb(0, 0, 0)" stroke-miterlimit="10" pointer-events="none"/><path d="M 340 279.12 L 348.5 296.12 L 331.5 296.12 Z" fill="none" stroke="rgb(0, 0, 0)" stroke-miterlimit="10" pointer-events="none"/><path d="M 155 346 L 155 320 L 335 320 L 335 346" fill="rgb(255, 255, 255)" stroke="rgb(0, 0, 0)" stroke-miterlimit="10" pointer-events="none"/><path d="M 155 346 L 155 530 L 335 530 L 335 346" fill="none" stroke="rgb(0, 0, 0)" stroke-miterlimit="10" pointer-events="none"/><path d="M 155 346 L 335 346" fill="none" stroke="rgb(0, 0, 0)" stroke-miterlimit="10" pointer-events="none"/><g fill="rgb(0, 0, 0)" font-family="Helvetica" font-weight="bold" pointer-events="none" text-anchor="middle" font-size="12px"><text x="244.5" y="337.5">GroupChat</text></g><g fill="rgb(0, 0, 0)" font-family="Helvetica" pointer-events="none" clip-path="url(#mx-clip-159-351-172-44-0)" font-size="12px"><text x="160.5" y="363.5">- users[1..*]: User</text><text x="160.5" y="377.5">- history: MessageHistory</text></g><g fill="rgb(0, 0, 0)" font-family="Helvetica" pointer-events="none" clip-path="url(#mx-clip-159-395-172-30-0)" font-size="12px"><text x="160.5" y="407.5">- owner: User</text></g><path d="M 155 424 L 335 424" fill="none" stroke="rgb(0, 0, 0)" stroke-miterlimit="10" pointer-events="none"/><g fill="rgb(0, 0, 0)" font-family="Helvetica" pointer-events="none" clip-path="url(#mx-clip-159-433-172-52-0)" font-size="12px"><text x="160.5" y="445.5">+ Send(Message, User)</text><text x="160.5" y="459.5">+ GetHistory(): MessageHistory</text><text x="160.5" y="473.5">+ GetUsers(): Users[1..*]</text></g><g fill="rgb(0, 0, 0)" font-family="Helvetica" pointer-events="none" clip-path="url(#mx-clip-159-485-172-50-0)" font-size="12px"><text x="160.5" y="497.5">+ Add(User, User)</text><text x="160.5" y="511.5">+ Remove(User, User)</text><text x="160.5" y="525.5">+ IsOwner(User): boolean</text></g><path d="M 440 320 L 440 310 L 340 310 L 340 296.12" fill="none" stroke="rgb(0, 0, 0)" stroke-miterlimit="10" pointer-events="none"/><path d="M 340 279.12 L 348.5 296.12 L 331.5 296.12 Z" fill="none" stroke="rgb(0, 0, 0)" stroke-miterlimit="10" pointer-events="none"/><path d="M 365 346 L 365 320 L 545 320 L 545 346" fill="rgb(255, 255, 255)" stroke="rgb(0, 0, 0)" stroke-miterlimit="10" pointer-events="none"/><path d="M 365 346 L 365 450 L 545 450 L 545 346" fill="none" stroke="rgb(0, 0, 0)" stroke-miterlimit="10" pointer-events="none"/><path d="M 365 346 L 545 346" fill="none" stroke="rgb(0, 0, 0)" stroke-miterlimit="10" pointer-events="none"/><g fill="rgb(0, 0, 0)" font-family="Helvetica" font-weight="bold" pointer-events="none" text-anchor="middle" font-size="12px"><text x="454.5" y="337.5">Dialog</text></g><g fill="rgb(0, 0, 0)" font-family="Helvetica" pointer-events="none" clip-path="url(#mx-clip-369-351-172-44-0)" font-size="12px"><text x="370.5" y="363.5">- users[2]: User</text><text x="370.5" y="377.5">- history: MessageHistory</text></g><path d="M 365 394 L 545 394" fill="none" stroke="rgb(0, 0, 0)" stroke-miterlimit="10" pointer-events="none"/><g fill="rgb(0, 0, 0)" font-family="Helvetica" pointer-events="none" clip-path="url(#mx-clip-369-403-172-52-0)" font-size="12px"><text x="370.5" y="415.5">+ Send(Message, User)</text><text x="370.5" y="429.5">+ GetHistory(): MessageHistory</text><text x="370.5" y="443.5">+ GetUsers(): Users[1..*]</text></g></g></svg>