<?xml version="1.0" encoding="UTF-8"?>
<!DOCTYPE svg PUBLIC "-//W3C//DTD SVG 1.1//EN" "http://www.w3.org/Graphics/SVG/1.1/DTD/svg11.dtd">
<svg xmlns="http://www.w3.org/2000/svg" xmlns:xlink="http://www.w3.org/1999/xlink" version="1.1" width="811px" height="482px" viewBox="-0.5 -0.5 811 482"><defs><clipPath id="mx-clip-414-181-172-34-0"><rect x="414" y="181" width="172" height="34"/></clipPath><clipPath id="mx-clip-414-233-172-22-0"><rect x="414" y="233" width="172" height="22"/></clipPath><clipPath id="mx-clip-414-255-172-82-0"><rect x="414" y="255" width="172" height="82"/></clipPath><clipPath id="mx-clip-614-181-172-24-0"><rect x="614" y="181" width="172" height="24"/></clipPath><clipPath id="mx-clip-614-213-172-42-0"><rect x="614" y="213" width="172" height="42"/></clipPath><clipPath id="mx-clip-614-255-172-30-0"><rect x="614" y="255" width="172" height="30"/></clipPath><clipPath id="mx-clip-514-69-182-26-0"><rect x="514" y="69" width="182" height="26"/></clipPath><clipPath id="mx-clip-24-51-132-24-0"><rect x="24" y="51" width="132" height="24"/></clipPath><clipPath id="mx-clip-24-83-132-30-0"><rect x="24" y="83" width="132" height="30"/></clipPath><clipPath id="mx-clip-214-225-132-24-0"><rect x="214" y="225" width="132" height="24"/></clipPath><clipPath id="mx-clip-214-257-132-30-0"><rect x="214" y="257" width="132" height="30"/></clipPath><clipPath id="mx-clip-24-139-132-24-0"><rect x="24" y="139" width="132" height="24"/></clipPath><clipPath id="mx-clip-24-171-132-30-0"><rect x="24" y="171" width="132" height="30"/></clipPath><clipPath id="mx-clip-24-225-132-24-0"><rect x="24" y="225" width="132" height="24"/></clipPath><clipPath id="mx-clip-24-257-132-30-0"><rect x="24" y="257" width="132" height="30"/></clipPath><clipPath id="mx-clip-24-313-132-24-0"><rect x="24" y="313" width="132" height="24"/></clipPath><clipPath id="mx-clip-24-345-132-30-0"><rect x="24" y="345" width="132" height="30"/></clipPath><clipPath id="mx-clip-24-401-132-24-0"><rect x="24" y="401" width="132" height="24"/></clipPath><clipPath id="mx-clip-24-433-132-30-0"><rect x="24" y="433" width="132" height="30"/></clipPath></defs><g><path d="M 500 150 L 500 130 L 600 130 L 600 108.12" fill="none" stroke="rgb(0, 0, 0)" stroke-miterlimit="10" pointer-events="stroke"/><path d="M 600 91.12 L 608.5 108.12 L 591.5 108.12 Z" fill="none" stroke="rgb(0, 0, 0)" stroke-miterlimit="10" pointer-events="all"/><path d="M 410 176 L 410 150 L 590 150 L 590 176" fill="rgb(255, 255, 255)" stroke="rgb(0, 0, 0)" stroke-miterlimit="10" pointer-events="all"/><path d="M 410 176 L 410 332 L 590 332 L 590 176" fill="none" stroke="rgb(0, 0, 0)" stroke-miterlimit="10" pointer-events="none"/><path d="M 410 176 L 590 176" fill="none" stroke="rgb(0, 0, 0)" stroke-miterlimit="10" pointer-events="none"/><g fill="rgb(0, 0, 0)" font-family="Helvetica" font-weight="bold" pointer-events="none" text-anchor="middle" font-size="12px"><text x="499.5" y="167.5">TextMessage</text></g><g fill="rgb(0, 0, 0)" font-family="Helvetica" pointer-events="none" clip-path="url(#mx-clip-414-181-172-34-0)" font-size="12px"><text x="415.5" y="193.5">- text: string</text><text x="415.5" y="207.5">- attachments[0..*]: Media</text></g><path d="M 410 219 L 590 219" fill="none" stroke="rgb(0, 0, 0)" stroke-miterlimit="10" pointer-events="none"/><g fill="rgb(0, 0, 0)" font-family="Helvetica" pointer-events="none" clip-path="url(#mx-clip-414-233-172-22-0)" font-size="12px"><text x="415.5" y="245.5">+ GetStatus(): MessageStatus</text></g><g fill="rgb(0, 0, 0)" font-family="Helvetica" pointer-events="none" clip-path="url(#mx-clip-414-255-172-82-0)" font-size="12px"><text x="415.5" y="267.5">+ GetText(): string</text><text x="415.5" y="281.5">+ SetText(string)</text><text x="415.5" y="295.5">+ GetAttachments(): Media[]</text><text x="415.5" y="309.5">+ Attach(Media)</text><text x="415.5" y="323.5">+ Detach(Media)</text></g><path d="M 720 150 L 720 130 L 600 130 L 600 108.12" fill="none" stroke="rgb(0, 0, 0)" stroke-miterlimit="10" pointer-events="none"/><path d="M 600 91.12 L 608.5 108.12 L 591.5 108.12 Z" fill="none" stroke="rgb(0, 0, 0)" stroke-miterlimit="10" pointer-events="none"/><path d="M 610 176 L 610 150 L 790 150 L 790 176" fill="rgb(255, 255, 255)" stroke="rgb(0, 0, 0)" stroke-miterlimit="10" pointer-events="none"/><path d="M 610 176 L 610 280 L 790 280 L 790 176" fill="none" stroke="rgb(0, 0, 0)" stroke-miterlimit="10" pointer-events="none"/><path d="M 610 176 L 790 176" fill="none" stroke="rgb(0, 0, 0)" stroke-miterlimit="10" pointer-events="none"/><g fill="rgb(0, 0, 0)" font-family="Helvetica" font-weight="bold" pointer-events="none" text-anchor="middle" font-size="12px"><text x="699.5" y="167.5">VoiceMessage</text></g><g fill="rgb(0, 0, 0)" font-family="Helvetica" pointer-events="none" clip-path="url(#mx-clip-614-181-172-24-0)" font-size="12px"><text x="615.5" y="193.5">- audio: AudioClip</text></g><path d="M 610 204 L 790 204" fill="none" stroke="rgb(0, 0, 0)" stroke-miterlimit="10" pointer-events="none"/><g fill="rgb(0, 0, 0)" font-family="Helvetica" pointer-events="none" clip-path="url(#mx-clip-614-213-172-42-0)" font-size="12px"><text x="615.5" y="225.5">+ GetAudio(): AudioClip</text><text x="615.5" y="239.5">+ SetAudio(AudioClip)</text></g><g fill="rgb(0, 0, 0)" font-family="Helvetica" pointer-events="none" clip-path="url(#mx-clip-614-255-172-30-0)" font-size="12px"><text x="615.5" y="267.5">+ GetStatus(): MessageStatus</text></g><path d="M 510 56 L 510 30 L 700 30 L 700 56" fill="rgb(255, 255, 255)" stroke="rgb(0, 0, 0)" stroke-miterlimit="10" pointer-events="none"/><path d="M 510 56 L 510 90 L 700 90 L 700 56" fill="none" stroke="rgb(0, 0, 0)" stroke-miterlimit="10" pointer-events="none"/><path d="M 510 56 L 700 56" fill="none" stroke="rgb(0, 0, 0)" stroke-miterlimit="10" pointer-events="none"/><g fill="rgb(0, 0, 0)" font-family="Helvetica" font-weight="bold" font-style="italic" pointer-events="none" text-anchor="middle" font-size="12px"><text x="604.5" y="47.5">Message</text></g><path d="M 510 60 L 700 60" fill="none" stroke="rgb(0, 0, 0)" stroke-miterlimit="10" pointer-events="none"/><g fill="rgb(0, 0, 0)" font-family="Helvetica" font-style="italic" pointer-events="none" clip-path="url(#mx-clip-514-69-182-26-0)" font-size="12px"><text x="515.5" y="81.5">+ GetStatus(): MessageStatus</text></g><path d="M 160 64 L 180 64 L 180 238 L 191.88 238" fill="none" stroke="rgb(0, 0, 0)" stroke-miterlimit="10" pointer-events="none"/><path d="M 208.88 238 L 191.88 246.5 L 191.88 229.5 Z" fill="none" stroke="rgb(0, 0, 0)" stroke-miterlimit="10" pointer-events="none"/><path d="M 20 46 L 20 20 L 160 20 L 160 46" fill="rgb(255, 255, 255)" stroke="rgb(0, 0, 0)" stroke-miterlimit="10" pointer-events="none"/><path d="M 20 46 L 20 108 L 160 108 L 160 46" fill="none" stroke="rgb(0, 0, 0)" stroke-miterlimit="10" pointer-events="none"/><path d="M 20 46 L 160 46" fill="none" stroke="rgb(0, 0, 0)" stroke-miterlimit="10" pointer-events="none"/><g fill="rgb(0, 0, 0)" font-family="Helvetica" font-weight="bold" pointer-events="none" text-anchor="middle" font-size="12px"><text x="89.5" y="37.5">Picture</text></g><g fill="rgb(0, 0, 0)" font-family="Helvetica" font-style="italic" pointer-events="none" clip-path="url(#mx-clip-24-51-132-24-0)" font-size="12px"><text x="25.5" y="63.5"># source: string</text></g><path d="M 20 74 L 160 74" fill="none" stroke="rgb(0, 0, 0)" stroke-miterlimit="10" pointer-events="none"/><g fill="rgb(0, 0, 0)" font-family="Helvetica" pointer-events="none" clip-path="url(#mx-clip-24-83-132-30-0)" font-size="12px"><text x="25.5" y="95.5">+ Accept(IMediaVisitor)</text></g><path d="M 350 241 L 370 241 L 392.29 241" fill="none" stroke="rgb(0, 0, 0)" stroke-miterlimit="10" pointer-events="none"/><path d="M 409.29 241 L 400.79 249.5 L 392.29 241 L 400.79 232.5 Z" fill="rgb(0, 0, 0)" stroke="rgb(0, 0, 0)" stroke-miterlimit="10" pointer-events="none"/><path d="M 210 220 L 210 194 L 350 194 L 350 220" fill="rgb(255, 255, 255)" stroke="rgb(0, 0, 0)" stroke-miterlimit="10" pointer-events="none"/><path d="M 210 220 L 210 282 L 350 282 L 350 220" fill="none" stroke="rgb(0, 0, 0)" stroke-miterlimit="10" pointer-events="none"/><path d="M 210 220 L 350 220" fill="none" stroke="rgb(0, 0, 0)" stroke-miterlimit="10" pointer-events="none"/><g fill="rgb(0, 0, 0)" font-family="Helvetica" font-weight="bold" font-style="italic" pointer-events="none" text-anchor="middle" font-size="12px"><text x="279.5" y="211.5">Media</text></g><g fill="rgb(0, 0, 0)" font-family="Helvetica" font-style="italic" pointer-events="none" clip-path="url(#mx-clip-214-225-132-24-0)" font-size="12px"><text x="215.5" y="237.5"># source: string</text></g><path d="M 210 248 L 350 248" fill="none" stroke="rgb(0, 0, 0)" stroke-miterlimit="10" pointer-events="none"/><g fill="rgb(0, 0, 0)" font-family="Helvetica" font-style="italic" pointer-events="none" clip-path="url(#mx-clip-214-257-132-30-0)" font-size="12px"><text x="215.5" y="269.5">+ Accept(IMediaVisitor)</text></g><path d="M 160 152 L 180 152 L 180 238 L 191.88 238" fill="none" stroke="rgb(0, 0, 0)" stroke-miterlimit="10" pointer-events="none"/><path d="M 208.88 238 L 191.88 246.5 L 191.88 229.5 Z" fill="none" stroke="rgb(0, 0, 0)" stroke-miterlimit="10" pointer-events="none"/><path d="M 20 134 L 20 108 L 160 108 L 160 134" fill="rgb(255, 255, 255)" stroke="rgb(0, 0, 0)" stroke-miterlimit="10" pointer-events="none"/><path d="M 20 134 L 20 196 L 160 196 L 160 134" fill="none" stroke="rgb(0, 0, 0)" stroke-miterlimit="10" pointer-events="none"/><path d="M 20 134 L 160 134" fill="none" stroke="rgb(0, 0, 0)" stroke-miterlimit="10" pointer-events="none"/><g fill="rgb(0, 0, 0)" font-family="Helvetica" font-weight="bold" pointer-events="none" text-anchor="middle" font-size="12px"><text x="89.5" y="125.5">Video</text></g><g fill="rgb(0, 0, 0)" font-family="Helvetica" font-style="italic" pointer-events="none" clip-path="url(#mx-clip-24-139-132-24-0)" font-size="12px"><text x="25.5" y="151.5"># source: string</text></g><path d="M 20 162 L 160 162" fill="none" stroke="rgb(0, 0, 0)" stroke-miterlimit="10" pointer-events="none"/><g fill="rgb(0, 0, 0)" font-family="Helvetica" pointer-events="none" clip-path="url(#mx-clip-24-171-132-30-0)" font-size="12px"><text x="25.5" y="183.5">+ Accept(IMediaVisitor)</text></g><path d="M 160 238 L 191.88 238" fill="none" stroke="rgb(0, 0, 0)" stroke-miterlimit="10" pointer-events="none"/><path d="M 208.88 238 L 191.88 246.5 L 191.88 229.5 Z" fill="none" stroke="rgb(0, 0, 0)" stroke-miterlimit="10" pointer-events="none"/><path d="M 20 220 L 20 194 L 160 194 L 160 220" fill="rgb(255, 255, 255)" stroke="rgb(0, 0, 0)" stroke-miterlimit="10" pointer-events="none"/><path d="M 20 220 L 20 282 L 160 282 L 160 220" fill="none" stroke="rgb(0, 0, 0)" stroke-miterlimit="10" pointer-events="none"/><path d="M 20 220 L 160 220" fill="none" stroke="rgb(0, 0, 0)" stroke-miterlimit="10" pointer-events="none"/><g fill="rgb(0, 0, 0)" font-family="Helvetica" font-weight="bold" pointer-events="none" text-anchor="middle" font-size="12px"><text x="89.5" y="211.5">Audio</text></g><g fill="rgb(0, 0, 0)" font-family="Helvetica" font-style="italic" pointer-events="none" clip-path="url(#mx-clip-24-225-132-24-0)" font-size="12px"><text x="25.5" y="237.5"># source: string</text></g><path d="M 20 248 L 160 248" fill="none" stroke="rgb(0, 0, 0)" stroke-miterlimit="10" pointer-events="none"/><g fill="rgb(0, 0, 0)" font-family="Helvetica" pointer-events="none" clip-path="url(#mx-clip-24-257-132-30-0)" font-size="12px"><text x="25.5" y="269.5">+ Accept(IMediaVisitor)</text></g><path d="M 160 326 L 180 326 L 180 238 L 191.88 238" fill="none" stroke="rgb(0, 0, 0)" stroke-miterlimit="10" pointer-events="none"/><path d="M 208.88 238 L 191.88 246.5 L 191.88 229.5 Z" fill="none" stroke="rgb(0, 0, 0)" stroke-miterlimit="10" pointer-events="none"/><path d="M 20 308 L 20 282 L 160 282 L 160 308" fill="rgb(255, 255, 255)" stroke="rgb(0, 0, 0)" stroke-miterlimit="10" pointer-events="none"/><path d="M 20 308 L 20 370 L 160 370 L 160 308" fill="none" stroke="rgb(0, 0, 0)" stroke-miterlimit="10" pointer-events="none"/><path d="M 20 308 L 160 308" fill="none" stroke="rgb(0, 0, 0)" stroke-miterlimit="10" pointer-events="none"/><g fill="rgb(0, 0, 0)" font-family="Helvetica" font-weight="bold" pointer-events="none" text-anchor="middle" font-size="12px"><text x="89.5" y="299.5">Document</text></g><g fill="rgb(0, 0, 0)" font-family="Helvetica" font-style="italic" pointer-events="none" clip-path="url(#mx-clip-24-313-132-24-0)" font-size="12px"><text x="25.5" y="325.5"># source: string</text></g><path d="M 20 336 L 160 336" fill="none" stroke="rgb(0, 0, 0)" stroke-miterlimit="10" pointer-events="none"/><g fill="rgb(0, 0, 0)" font-family="Helvetica" pointer-events="none" clip-path="url(#mx-clip-24-345-132-30-0)" font-size="12px"><text x="25.5" y="357.5">+ Accept(IMediaVisitor)</text></g><path d="M 160 414 L 180 414 L 180 238 L 191.88 238" fill="none" stroke="rgb(0, 0, 0)" stroke-miterlimit="10" pointer-events="none"/><path d="M 208.88 238 L 191.88 246.5 L 191.88 229.5 Z" fill="none" stroke="rgb(0, 0, 0)" stroke-miterlimit="10" pointer-events="none"/><path d="M 20 396 L 20 370 L 160 370 L 160 396" fill="rgb(255, 255, 255)" stroke="rgb(0, 0, 0)" stroke-miterlimit="10" pointer-events="none"/><path d="M 20 396 L 20 458 L 160 458 L 160 396" fill="none" stroke="rgb(0, 0, 0)" stroke-miterlimit="10" pointer-events="none"/><path d="M 20 396 L 160 396" fill="none" stroke="rgb(0, 0, 0)" stroke-miterlimit="10" pointer-events="none"/><g fill="rgb(0, 0, 0)" font-family="Helvetica" font-weight="bold" pointer-events="none" text-anchor="middle" font-size="12px"><text x="89.5" y="387.5">Contact</text></g><g fill="rgb(0, 0, 0)" font-family="Helvetica" font-style="italic" pointer-events="none" clip-path="url(#mx-clip-24-401-132-24-0)" font-size="12px"><text x="25.5" y="413.5"># source: string</text></g><path d="M 20 424 L 160 424" fill="none" stroke="rgb(0, 0, 0)" stroke-miterlimit="10" pointer-events="none"/><g fill="rgb(0, 0, 0)" font-family="Helvetica" pointer-events="none" clip-path="url(#mx-clip-24-433-132-30-0)" font-size="12px"><text x="25.5" y="445.5">+ Accept(IMediaVisitor)</text></g></g></svg>