<?xml version="1.0" encoding="UTF-8"?>
<!DOCTYPE svg PUBLIC "-//W3C//DTD SVG 1.1//EN" "http://www.w3.org/Graphics/SVG/1.1/DTD/svg11.dtd">
<svg xmlns="http://www.w3.org/2000/svg" xmlns:xlink="http://www.w3.org/1999/xlink" version="1.1" width="841px" height="580px" viewBox="-0.5 -0.5 841 580"><defs><clipPath id="mx-clip-374-219-162-26-0"><rect x="374" y="219" width="162" height="26"/></clipPath><clipPath id="mx-clip-374-245-162-82-0"><rect x="374" y="245" width="162" height="82"/></clipPath><clipPath id="mx-clip-24-453-152-26-0"><rect x="24" y="453" width="152" height="26"/></clipPath><clipPath id="mx-clip-24-479-152-82-0"><rect x="24" y="479" width="152" height="82"/></clipPath><clipPath id="mx-clip-184-453-152-26-0"><rect x="184" y="453" width="152" height="26"/></clipPath><clipPath id="mx-clip-184-479-152-82-0"><rect x="184" y="479" width="152" height="82"/></clipPath><clipPath id="mx-clip-344-453-152-26-0"><rect x="344" y="453" width="152" height="26"/></clipPath><clipPath id="mx-clip-344-479-152-82-0"><rect x="344" y="479" width="152" height="82"/></clipPath><clipPath id="mx-clip-504-453-152-26-0"><rect x="504" y="453" width="152" height="26"/></clipPath><clipPath id="mx-clip-504-479-152-82-0"><rect x="504" y="479" width="152" height="82"/></clipPath><clipPath id="mx-clip-664-453-152-26-0"><rect x="664" y="453" width="152" height="26"/></clipPath><clipPath id="mx-clip-664-479-152-82-0"><rect x="664" y="479" width="152" height="82"/></clipPath><clipPath id="mx-clip-374-65-152-82-0"><rect x="374" y="65" width="152" height="82"/></clipPath></defs><g><path d="M 455 180 L 455 160.12" fill="none" stroke="rgb(0, 0, 0)" stroke-miterlimit="10" stroke-dasharray="3 3" pointer-events="stroke"/><path d="M 455 143.12 L 463.5 160.12 L 446.5 160.12 Z" fill="none" stroke="rgb(0, 0, 0)" stroke-miterlimit="10" pointer-events="all"/><path d="M 370 206 L 370 180 L 540 180 L 540 206" fill="rgb(255, 255, 255)" stroke="rgb(0, 0, 0)" stroke-miterlimit="10" pointer-events="all"/><path d="M 370 206 L 370 322 L 540 322 L 540 206" fill="none" stroke="rgb(0, 0, 0)" stroke-miterlimit="10" pointer-events="none"/><path d="M 370 206 L 540 206" fill="none" stroke="rgb(0, 0, 0)" stroke-miterlimit="10" pointer-events="none"/><g fill="rgb(0, 0, 0)" font-family="Helvetica" font-weight="bold" font-style="italic" pointer-events="none" text-anchor="middle" font-size="12px"><text x="454.5" y="197.5">MessageViewer</text></g><path d="M 370 210 L 540 210" fill="none" stroke="rgb(0, 0, 0)" stroke-miterlimit="10" pointer-events="none"/><g fill="rgb(0, 0, 0)" font-family="Helvetica" font-style="italic" pointer-events="none" clip-path="url(#mx-clip-374-219-162-26-0)" font-size="12px"><text x="375.5" y="231.5">+ Show(Message)</text></g><g fill="rgb(0, 0, 0)" font-family="Helvetica" font-style="italic" pointer-events="none" clip-path="url(#mx-clip-374-245-162-82-0)" font-size="12px"><text x="375.5" y="257.5">+ VisitPicture(Picture)</text><text x="375.5" y="271.5">+ VIsitVideo(Video)</text><text x="375.5" y="285.5">+ VIsitAudio(Audio)</text><text x="375.5" y="299.5">+ VIsitDocument(Document)</text><text x="375.5" y="313.5">+ VIsitContact(Contact)</text></g><path d="M 100 414 L 100 380 L 435 380 L 435 340.12" fill="none" stroke="rgb(0, 0, 0)" stroke-miterlimit="10" pointer-events="none"/><path d="M 435 323.12 L 443.5 340.12 L 426.5 340.12 Z" fill="none" stroke="rgb(0, 0, 0)" stroke-miterlimit="10" pointer-events="none"/><path d="M 20 440 L 20 414 L 180 414 L 180 440" fill="rgb(255, 255, 255)" stroke="rgb(0, 0, 0)" stroke-miterlimit="10" pointer-events="none"/><path d="M 20 440 L 20 556 L 180 556 L 180 440" fill="none" stroke="rgb(0, 0, 0)" stroke-miterlimit="10" pointer-events="none"/><path d="M 20 440 L 180 440" fill="none" stroke="rgb(0, 0, 0)" stroke-miterlimit="10" pointer-events="none"/><g fill="rgb(0, 0, 0)" font-family="Helvetica" font-weight="bold" pointer-events="none" text-anchor="middle" font-size="12px"><text x="99.5" y="431.5">WindowsMessageViewer</text></g><path d="M 20 444 L 180 444" fill="none" stroke="rgb(0, 0, 0)" stroke-miterlimit="10" pointer-events="none"/><g fill="rgb(0, 0, 0)" font-family="Helvetica" pointer-events="none" clip-path="url(#mx-clip-24-453-152-26-0)" font-size="12px"><text x="25.5" y="465.5">+ Show(Message)</text></g><g fill="rgb(0, 0, 0)" font-family="Helvetica" pointer-events="none" clip-path="url(#mx-clip-24-479-152-82-0)" font-size="12px"><text x="25.5" y="491.5">+ VisitPicture(Picture)</text><text x="25.5" y="505.5">+ VIsitVideo(Video)</text><text x="25.5" y="519.5">+ VIsitAudio(Audio)</text><text x="25.5" y="533.5">+ VIsitDocument(Document)</text><text x="25.5" y="547.5">+ VIsitContact(Contact)</text></g><path d="M 260 414 L 260 380 L 435 380 L 435 340.12" fill="none" stroke="rgb(0, 0, 0)" stroke-miterlimit="10" pointer-events="none"/><path d="M 435 323.12 L 443.5 340.12 L 426.5 340.12 Z" fill="none" stroke="rgb(0, 0, 0)" stroke-miterlimit="10" pointer-events="none"/><path d="M 180 440 L 180 414 L 340 414 L 340 440" fill="rgb(255, 255, 255)" stroke="rgb(0, 0, 0)" stroke-miterlimit="10" pointer-events="none"/><path d="M 180 440 L 180 556 L 340 556 L 340 440" fill="none" stroke="rgb(0, 0, 0)" stroke-miterlimit="10" pointer-events="none"/><path d="M 180 440 L 340 440" fill="none" stroke="rgb(0, 0, 0)" stroke-miterlimit="10" pointer-events="none"/><g fill="rgb(0, 0, 0)" font-family="Helvetica" font-weight="bold" pointer-events="none" text-anchor="middle" font-size="12px"><text x="259.5" y="431.5">MacOSMessageViewer</text></g><path d="M 180 444 L 340 444" fill="none" stroke="rgb(0, 0, 0)" stroke-miterlimit="10" pointer-events="none"/><g fill="rgb(0, 0, 0)" font-family="Helvetica" pointer-events="none" clip-path="url(#mx-clip-184-453-152-26-0)" font-size="12px"><text x="185.5" y="465.5">+ Show(Message)</text></g><g fill="rgb(0, 0, 0)" font-family="Helvetica" pointer-events="none" clip-path="url(#mx-clip-184-479-152-82-0)" font-size="12px"><text x="185.5" y="491.5">+ VisitPicture(Picture)</text><text x="185.5" y="505.5">+ VIsitVideo(Video)</text><text x="185.5" y="519.5">+ VIsitAudio(Audio)</text><text x="185.5" y="533.5">+ VIsitDocument(Document)</text><text x="185.5" y="547.5">+ VIsitContact(Contact)</text></g><path d="M 435 414 L 435 400 L 435 340.12" fill="none" stroke="rgb(0, 0, 0)" stroke-miterlimit="10" pointer-events="none"/><path d="M 435 323.12 L 443.5 340.12 L 426.5 340.12 Z" fill="none" stroke="rgb(0, 0, 0)" stroke-miterlimit="10" pointer-events="none"/><path d="M 340 440 L 340 414 L 500 414 L 500 440" fill="rgb(255, 255, 255)" stroke="rgb(0, 0, 0)" stroke-miterlimit="10" pointer-events="none"/><path d="M 340 440 L 340 556 L 500 556 L 500 440" fill="none" stroke="rgb(0, 0, 0)" stroke-miterlimit="10" pointer-events="none"/><path d="M 340 440 L 500 440" fill="none" stroke="rgb(0, 0, 0)" stroke-miterlimit="10" pointer-events="none"/><g fill="rgb(0, 0, 0)" font-family="Helvetica" font-weight="bold" pointer-events="none" text-anchor="middle" font-size="12px"><text x="419.5" y="431.5">AndroidMessageViewer</text></g><path d="M 340 444 L 500 444" fill="none" stroke="rgb(0, 0, 0)" stroke-miterlimit="10" pointer-events="none"/><g fill="rgb(0, 0, 0)" font-family="Helvetica" pointer-events="none" clip-path="url(#mx-clip-344-453-152-26-0)" font-size="12px"><text x="345.5" y="465.5">+ Show(Message)</text></g><g fill="rgb(0, 0, 0)" font-family="Helvetica" pointer-events="none" clip-path="url(#mx-clip-344-479-152-82-0)" font-size="12px"><text x="345.5" y="491.5">+ VisitPicture(Picture)</text><text x="345.5" y="505.5">+ VIsitVideo(Video)</text><text x="345.5" y="519.5">+ VIsitAudio(Audio)</text><text x="345.5" y="533.5">+ VIsitDocument(Document)</text><text x="345.5" y="547.5">+ VIsitContact(Contact)</text></g><path d="M 580 414 L 580 380 L 435 380 L 435 340.12" fill="none" stroke="rgb(0, 0, 0)" stroke-miterlimit="10" pointer-events="none"/><path d="M 435 323.12 L 443.5 340.12 L 426.5 340.12 Z" fill="none" stroke="rgb(0, 0, 0)" stroke-miterlimit="10" pointer-events="none"/><path d="M 500 440 L 500 414 L 660 414 L 660 440" fill="rgb(255, 255, 255)" stroke="rgb(0, 0, 0)" stroke-miterlimit="10" pointer-events="none"/><path d="M 500 440 L 500 556 L 660 556 L 660 440" fill="none" stroke="rgb(0, 0, 0)" stroke-miterlimit="10" pointer-events="none"/><path d="M 500 440 L 660 440" fill="none" stroke="rgb(0, 0, 0)" stroke-miterlimit="10" pointer-events="none"/><g fill="rgb(0, 0, 0)" font-family="Helvetica" font-weight="bold" pointer-events="none" text-anchor="middle" font-size="12px"><text x="579.5" y="431.5">IOSMessageViewer</text></g><path d="M 500 444 L 660 444" fill="none" stroke="rgb(0, 0, 0)" stroke-miterlimit="10" pointer-events="none"/><g fill="rgb(0, 0, 0)" font-family="Helvetica" pointer-events="none" clip-path="url(#mx-clip-504-453-152-26-0)" font-size="12px"><text x="505.5" y="465.5">+ Show(Message)</text></g><g fill="rgb(0, 0, 0)" font-family="Helvetica" pointer-events="none" clip-path="url(#mx-clip-504-479-152-82-0)" font-size="12px"><text x="505.5" y="491.5">+ VisitPicture(Picture)</text><text x="505.5" y="505.5">+ VIsitVideo(Video)</text><text x="505.5" y="519.5">+ VIsitAudio(Audio)</text><text x="505.5" y="533.5">+ VIsitDocument(Document)</text><text x="505.5" y="547.5">+ VIsitContact(Contact)</text></g><path d="M 733 414 L 733 380 L 435 380 L 435 340.12" fill="none" stroke="rgb(0, 0, 0)" stroke-miterlimit="10" pointer-events="none"/><path d="M 435 323.12 L 443.5 340.12 L 426.5 340.12 Z" fill="none" stroke="rgb(0, 0, 0)" stroke-miterlimit="10" pointer-events="none"/><path d="M 660 440 L 660 414 L 820 414 L 820 440" fill="rgb(255, 255, 255)" stroke="rgb(0, 0, 0)" stroke-miterlimit="10" pointer-events="none"/><path d="M 660 440 L 660 556 L 820 556 L 820 440" fill="none" stroke="rgb(0, 0, 0)" stroke-miterlimit="10" pointer-events="none"/><path d="M 660 440 L 820 440" fill="none" stroke="rgb(0, 0, 0)" stroke-miterlimit="10" pointer-events="none"/><g fill="rgb(0, 0, 0)" font-family="Helvetica" font-weight="bold" pointer-events="none" text-anchor="middle" font-size="12px"><text x="739.5" y="431.5">WebMessageViewer</text></g><path d="M 660 444 L 820 444" fill="none" stroke="rgb(0, 0, 0)" stroke-miterlimit="10" pointer-events="none"/><g fill="rgb(0, 0, 0)" font-family="Helvetica" pointer-events="none" clip-path="url(#mx-clip-664-453-152-26-0)" font-size="12px"><text x="665.5" y="465.5">+ Show(Message)</text></g><g fill="rgb(0, 0, 0)" font-family="Helvetica" pointer-events="none" clip-path="url(#mx-clip-664-479-152-82-0)" font-size="12px"><text x="665.5" y="491.5">+ VisitPicture(Picture)</text><text x="665.5" y="505.5">+ VIsitVideo(Video)</text><text x="665.5" y="519.5">+ VIsitAudio(Audio)</text><text x="665.5" y="533.5">+ VIsitDocument(Document)</text><text x="665.5" y="547.5">+ VIsitContact(Contact)</text></g><path d="M 370 60 L 370 20 L 530 20 L 530 60" fill="rgb(255, 255, 255)" stroke="rgb(0, 0, 0)" stroke-miterlimit="10" pointer-events="none"/><path d="M 370 60 L 370 142 L 530 142 L 530 60" fill="none" stroke="rgb(0, 0, 0)" stroke-miterlimit="10" pointer-events="none"/><path d="M 370 60 L 530 60" fill="none" stroke="rgb(0, 0, 0)" stroke-miterlimit="10" pointer-events="none"/><g fill="rgb(0, 0, 0)" font-family="Helvetica" font-weight="bold" font-style="italic" pointer-events="none" text-anchor="middle" font-size="12px"><text x="449.5" y="37.5">«interface»</text><text x="449.5" y="51.5">IMediaVisitor</text></g><g fill="rgb(0, 0, 0)" font-family="Helvetica" font-style="italic" pointer-events="none" clip-path="url(#mx-clip-374-65-152-82-0)" font-size="12px"><text x="375.5" y="77.5">+ VisitPicture(Picture)</text><text x="375.5" y="91.5">+ VIsitVideo(Video)</text><text x="375.5" y="105.5">+ VIsitAudio(Audio)</text><text x="375.5" y="119.5">+ VIsitDocument(Document)</text><text x="375.5" y="133.5">+ VIsitContact(Contact)</text></g></g></svg>