<?xml version="1.0" encoding="UTF-8"?>
<!DOCTYPE svg PUBLIC "-//W3C//DTD SVG 1.1//EN" "http://www.w3.org/Graphics/SVG/1.1/DTD/svg11.dtd">
<svg xmlns="http://www.w3.org/2000/svg" xmlns:xlink="http://www.w3.org/1999/xlink" version="1.1" width="431px" height="244px" viewBox="-0.5 -0.5 431 244"><defs><clipPath id="mx-clip-24-51-152-54-0"><rect x="24" y="51" width="152" height="54"/></clipPath><clipPath id="mx-clip-24-113-152-112-0"><rect x="24" y="113" width="152" height="112"/></clipPath><clipPath id="mx-clip-254-95-152-100-0"><rect x="254" y="95" width="152" height="100"/></clipPath></defs><g><path d="M 180 120 L 250 120" fill="none" stroke="rgb(0, 0, 0)" stroke-miterlimit="10" pointer-events="stroke"/><path d="M 20 46 L 20 20 L 180 20 L 180 46" fill="rgb(255, 255, 255)" stroke="rgb(0, 0, 0)" stroke-miterlimit="10" pointer-events="all"/><path d="M 20 46 L 20 220 L 180 220 L 180 46" fill="none" stroke="rgb(0, 0, 0)" stroke-miterlimit="10" pointer-events="none"/><path d="M 20 46 L 180 46" fill="none" stroke="rgb(0, 0, 0)" stroke-miterlimit="10" pointer-events="none"/><g fill="rgb(0, 0, 0)" font-family="Helvetica" font-weight="bold" pointer-events="none" text-anchor="middle" font-size="12px"><text x="99.5" y="37.5">User</text></g><g fill="rgb(0, 0, 0)" font-family="Helvetica" pointer-events="none" clip-path="url(#mx-clip-24-51-152-54-0)" font-size="12px"><text x="25.5" y="63.5">+ Personal: UserData</text><text x="25.5" y="77.5">- contacts[0..*]: User</text><text x="25.5" y="91.5">- chats[0..*]: Chat</text></g><path d="M 20 104 L 180 104" fill="none" stroke="rgb(0, 0, 0)" stroke-miterlimit="10" pointer-events="none"/><g fill="rgb(0, 0, 0)" font-family="Helvetica" pointer-events="none" clip-path="url(#mx-clip-24-113-152-112-0)" font-size="12px"><text x="25.5" y="125.5">+ AddContact(User)</text><text x="25.5" y="139.5">+ AddContact(Contact)</text><text x="25.5" y="153.5">+ RemoveContact(User)</text><text x="25.5" y="167.5">+ RemoveContact(Contact)</text><text x="25.5" y="181.5">+ GetContacts(): User[0..*]</text><text x="25.5" y="195.5">+ ToContact(): Contact</text><text x="25.5" y="209.5">+ GetChats(): Chat[0..*]</text></g><path d="M 250 90 L 250 50 L 410 50 L 410 90" fill="rgb(255, 255, 255)" stroke="rgb(0, 0, 0)" stroke-miterlimit="10" pointer-events="none"/><path d="M 250 90 L 250 190 L 410 190 L 410 90" fill="none" stroke="rgb(0, 0, 0)" stroke-miterlimit="10" pointer-events="none"/><path d="M 250 90 L 410 90" fill="none" stroke="rgb(0, 0, 0)" stroke-miterlimit="10" pointer-events="none"/><g fill="rgb(0, 0, 0)" font-family="Helvetica" font-weight="bold" pointer-events="none" text-anchor="middle" font-size="12px"><text x="329.5" y="67.5">«struct»</text><text x="329.5" y="81.5">UserData</text></g><g fill="rgb(0, 0, 0)" font-family="Helvetica" pointer-events="none" clip-path="url(#mx-clip-254-95-152-100-0)" font-size="12px"><text x="255.5" y="107.5">+ FirstName: string</text><text x="255.5" y="121.5">+ LastName: string</text><text x="255.5" y="135.5">+ BirthDate: Date</text><text x="255.5" y="149.5">+ Number: string</text><text x="255.5" y="163.5">+ Avatar: Picture</text><text x="255.5" y="177.5">+ Biography: string</text></g></g></svg>